<?xml version="1.0" encoding="iso-8859-1"?>
<!-- Generator: Adobe Illustrator 19.0.0, SVG Export Plug-In . SVG Version: 6.00 Build 0)  -->
<svg version="1.1" id="Capa_1" xmlns="http://www.w3.org/2000/svg" xmlns:xlink="http://www.w3.org/1999/xlink" x="0px" y="0px"
	 viewBox="0 0 511.999 511.999" style="enable-background:new 0 0 511.999 511.999;" xml:space="preserve">
<path style="fill:#FD9727;" d="M362.585,280.61l-97.245,25.286c-6.01,1.563-12.316,1.594-18.341,0.092l-102.588-25.581
	c-16.269-4.057-27.686-18.67-27.686-35.437V132.891c0-69.248,56.137-125.385,125.385-125.385h22.422
	c69.248,0,125.385,56.137,125.385,125.385v112.372C389.915,261.894,378.68,276.425,362.585,280.61z"/>
<path style="fill:#FF6D3A;" d="M264.531,7.507h-22.422c-5.632,0-11.175,0.378-16.611,1.097
	c61.395,8.127,108.774,60.672,108.774,124.287v112.372c0,16.631-11.236,31.162-27.331,35.347l-79.164,20.584l19.222,4.793
	c6.025,1.502,12.331,1.471,18.341-0.092l97.245-25.286c16.096-4.185,27.331-18.716,27.331-35.347V132.891
	C389.915,63.643,333.779,7.507,264.531,7.507z"/>
<g>
	<path style="fill:#3D6687;" d="M122.528,211.167h26.607v-64.958h-26.607c-7.817,0-14.154,6.337-14.154,14.154v36.651
		C108.374,204.83,114.711,211.167,122.528,211.167z"/>
	<path style="fill:#3D6687;" d="M389.471,211.167h-26.607v-64.958h26.607c7.817,0,14.154,6.337,14.154,14.154v36.651
		C403.626,204.83,397.289,211.167,389.471,211.167z"/>
</g>
<path style="fill:#FED9A8;" d="M316.077,324.509c-9.305-1.87-16-10.044-16-19.536v-44.917H256l0,0h-44.077v44.917
	c0,9.492-6.695,17.666-16,19.536l-10.74,2.159v72.13H256l0,0h70.816v-72.13L316.077,324.509z"/>
<path style="fill:#FF4C4C;" d="M407.848,348.727l-88.408-27.565c-2.745-0.856-5.737-0.161-7.824,1.817L256,375.685l-55.616-52.706
	c-2.087-1.977-5.079-2.672-7.824-1.817l-88.408,27.565c-39.196,11.541-66.108,47.519-66.108,88.379v58.897
	c0,4.689,3.801,8.489,8.489,8.489h418.933c4.689,0,8.49-3.801,8.49-8.489v-58.897C473.956,396.247,447.044,360.268,407.848,348.727z
	"/>
<path style="fill:#EF2929;" d="M407.848,348.727l-88.408-27.565c-2.744-0.856-5.737-0.161-7.824,1.817l-10.396,9.852l50.984,15.896
	c39.196,11.54,66.108,47.519,66.108,88.379v67.386h47.154c4.689,0,8.49-3.801,8.49-8.489v-58.897
	C473.956,396.247,447.044,360.268,407.848,348.727z"/>
<path style="fill:#FED9A8;" d="M256,297.403L256,297.403c-60.679,0-109.868-49.19-109.868-109.868v-30.877
	C146.132,95.98,195.322,46.79,256,46.79l0,0c60.678,0,109.868,49.19,109.868,109.868v30.877
	C365.868,248.214,316.678,297.403,256,297.403z"/>
<path style="fill:#F4C892;" d="M310.224,61.088v126.447c0,51.066-34.84,93.991-82.046,106.311
	c8.886,2.319,18.209,3.557,27.822,3.557l0,0c60.678,0,109.868-49.19,109.868-109.868v-30.876
	C365.868,115.701,343.453,79.982,310.224,61.088z"/>
<g>
	<path style="fill:#D4145A;" d="M200.384,322.979L256,375.685l-34.3,11.685c-8.404,2.863-17.705,0.374-23.556-6.303l-42.425-48.417
		l36.84-11.486C195.304,320.307,198.297,321.002,200.384,322.979z"/>
	<path style="fill:#D4145A;" d="M311.616,322.979L256,375.685l31.087,10.59c10.348,3.525,21.801,0.461,29.006-7.762l40.188-45.864
		l-36.84-11.486C316.696,320.307,313.703,321.002,311.616,322.979z"/>
</g>
<path style="fill:#EDA558;" d="M190.372,460.897h-56.55c-3.14,0-5.685-2.545-5.685-5.685v-25.047c0-3.14,2.545-5.685,5.685-5.685
	h56.55c3.14,0,5.685,2.545,5.685,5.685v25.047C196.057,458.352,193.512,460.897,190.372,460.897z"/>
<path style="fill:#FD9727;" d="M389.915,156.05c0,0-47.402-3.762-63.622-47.364c0,0-114.587,91.74-209.569,47.364v-23.159
	c0-69.248,56.137-125.385,125.385-125.385h22.422c69.248,0,125.385,56.137,125.385,125.385v23.159H389.915z"/>
<path style="fill:#FF6D3A;" d="M264.531,7.507h-22.422c-5.632,0-11.175,0.378-16.611,1.097
	c58.377,7.728,104.078,55.614,108.43,114.991c19.989,29.593,55.987,32.455,55.987,32.455v-23.159
	C389.915,63.643,333.779,7.507,264.531,7.507z"/>
<path style="fill:#D4145A;" d="M275.587,283.743c-6.939,0-13.075-4.992-14.287-12.062c-1.355-7.9,3.951-15.403,11.851-16.757
	l24.472-4.197c7.902-1.357,15.403,3.951,16.758,11.851c1.355,7.9-3.951,15.403-11.851,16.757l-24.472,4.197
	C277.228,283.675,276.402,283.743,275.587,283.743z"/>
<path d="M461.612,377.425c-12.975-17.346-30.81-29.751-51.585-35.882l-51.5-16.057c-0.004-0.001-0.008-0.003-0.011-0.004
	l-36.839-11.485c-3.294-1.03-6.776-0.903-9.914,0.247c-2.608-2.323-4.179-5.689-4.179-9.271v-2.304l56.89-14.792
	c19.4-5.045,32.949-22.567,32.949-42.613v-28.108c8.02-3.177,13.71-11.005,13.71-20.142v-36.651c0-9.192-5.638-16.981-13.71-20.132
	v-7.339c0-5.655-0.359-11.348-1.068-16.924c-0.523-4.112-4.283-7.013-8.393-6.5c-4.113,0.523-7.023,4.281-6.5,8.394
	c0.629,4.95,0.948,10.006,0.948,15.03v13.34v0.883c-4.017-0.966-9.194-2.545-14.743-5.077c-0.264-0.12-0.524-0.243-0.786-0.365
	c-10.6-4.979-22.408-13.469-30.068-27.858c-0.115-0.218-0.23-0.437-0.343-0.657c-0.287-0.555-0.568-1.117-0.843-1.69
	c-0.212-0.444-0.415-0.895-0.618-1.346c-0.188-0.417-0.379-0.829-0.56-1.254c-0.39-0.92-0.767-1.851-1.12-2.8
	c-0.84-2.258-2.712-3.975-5.034-4.617c-0.581-0.161-1.172-0.25-1.762-0.269c-0.111-0.004-0.222,0.007-0.333,0.009
	c-0.183,0.002-0.366-0.001-0.548,0.015c-1.293,0.111-2.542,0.568-3.628,1.321c-0.141,0.098-0.286,0.19-0.422,0.298
	c-0.026,0.021-0.132,0.105-0.3,0.236c-0.019,0.015-0.032,0.025-0.053,0.041c-0.063,0.049-0.146,0.113-0.225,0.174
	c-0.057,0.044-0.112,0.087-0.178,0.137c-0.068,0.052-0.149,0.114-0.225,0.173c-0.111,0.085-0.226,0.173-0.355,0.271
	c-0.058,0.044-0.122,0.093-0.184,0.14c-0.171,0.129-0.353,0.267-0.552,0.417c-0.041,0.031-0.084,0.063-0.126,0.095
	c-13.89,10.419-91.182,65.242-165.356,54.779c-0.131-0.019-0.262-0.039-0.393-0.058c-1.192-0.172-2.384-0.364-3.574-0.57
	c-0.34-0.059-0.679-0.12-1.019-0.182c-1.028-0.187-2.054-0.388-3.08-0.601c-0.33-0.069-0.662-0.135-0.991-0.207
	c-1.185-0.256-2.368-0.531-3.55-0.824c-0.48-0.119-0.956-0.249-1.434-0.374c-0.732-0.191-1.462-0.388-2.192-0.593
	c-0.577-0.162-1.154-0.327-1.728-0.498c-0.798-0.238-1.595-0.488-2.391-0.743c-0.714-0.229-1.425-0.465-2.134-0.707
	c-0.8-0.273-1.599-0.552-2.396-0.844c-0.475-0.174-0.949-0.35-1.421-0.53c-1.075-0.409-2.148-0.83-3.218-1.274
	c-0.098-0.041-0.198-0.078-0.296-0.119v-3.701v-14.572c0-64.998,52.88-117.878,117.878-117.878h22.422
	c47.137,0,89.651,27.975,108.308,71.271c1.641,3.808,6.058,5.565,9.865,3.923c3.807-1.641,5.564-6.057,3.923-9.864
	C365.595,31.537,317.669,0,264.531,0H242.11c-73.277,0-132.891,59.614-132.891,132.891v10.412
	c-5.184,4.05-8.351,10.315-8.351,17.059v36.651c0,6.928,3.274,13.102,8.351,17.07v30.887c0,20.254,13.725,37.821,33.376,42.721
	l61.822,15.416v1.866c0,3.583-1.571,6.95-4.18,9.273c-3.138-1.149-6.619-1.275-9.911-0.249l-36.84,11.486
	c-0.004,0.001-0.008,0.003-0.012,0.004l-51.498,16.057c-28.552,8.425-51.656,28.952-63.394,56.326
	c-0.902,2.105-1.743,4.269-2.498,6.434c-1.366,3.915,0.699,8.195,4.614,9.561c3.915,1.363,8.194-0.699,9.561-4.614
	c0.642-1.839,1.356-3.678,2.122-5.466c9.976-23.267,29.619-40.71,53.891-47.857c0.038-0.011,0.076-0.022,0.114-0.034l46.906-14.625
	l39.206,44.745c5.704,6.509,13.776,10.047,22.092,10.047c3.181-0.001,6.398-0.518,9.531-1.585L256,383.616l28.666,9.765
	c3.674,1.251,7.444,1.858,11.174,1.858c9.749-0.001,19.213-4.149,25.899-11.779l36.969-42.191l46.906,14.625
	c0.038,0.012,0.076,0.023,0.114,0.034c17.664,5.201,32.832,15.745,43.861,30.49c11.03,14.745,16.86,32.272,16.86,50.687v58.897
	c0,0.542-0.441,0.983-0.982,0.983h-40.549v-68.624c0-4.146-3.361-7.507-7.507-7.507s-7.507,3.36-7.507,7.507v68.624H102.096v-68.624
	c0-4.146-3.361-7.507-7.507-7.507s-7.507,3.36-7.507,7.507v68.624H46.533c-0.542,0-0.982-0.441-0.982-0.983v-54.06
	c0-4.146-3.361-7.507-7.507-7.507s-7.507,3.36-7.507,7.507v54.06c0,8.82,7.176,15.997,15.996,15.997h418.934
	c8.82,0,15.996-7.176,15.996-15.997v-58.897C481.463,415.425,474.598,394.788,461.612,377.425z M382.409,245.263
	c0,13.21-8.929,24.758-21.713,28.082l-36.051,9.374c0.462-0.334,0.906-0.689,1.362-1.029c0.188-0.14,0.374-0.283,0.561-0.424
	c1.284-0.968,2.546-1.961,3.786-2.979c0.162-0.133,0.324-0.266,0.485-0.4c1.324-1.099,2.623-2.224,3.896-3.378
	c0.061-0.056,0.124-0.11,0.185-0.166c2.035-1.852,4.002-3.772,5.9-5.758c0.142-0.148,0.281-0.299,0.421-0.447
	c0.939-0.993,1.864-1.999,2.768-3.023l8.473-1.453c13.957-2.394,25.076-11.906,29.926-24.441v6.042H382.409z M372.303,203.373
	c0.335-2.472,0.594-4.968,0.772-7.487c0.018-0.255,0.032-0.51,0.049-0.764c0.063-0.984,0.114-1.97,0.152-2.96
	c0.013-0.319,0.027-0.637,0.036-0.956c0.038-1.22,0.063-2.442,0.063-3.671v-27.282c8.756,2.632,15.134,3.214,15.929,3.278
	c0.004,0,0.014,0.001,0.017,0.001s0.006,0,0.009,0c2.084,0.164,4.143-0.55,5.679-1.97c0.201-0.186,0.39-0.383,0.568-0.587
	c0.063-0.072,0.117-0.15,0.177-0.224c0.11-0.137,0.221-0.274,0.321-0.418c0.013-0.019,0.03-0.037,0.043-0.056
	c0,0.027,0,0.056,0,0.084v36.651c0,3.557-2.81,6.462-6.327,6.63c-0.041,0.001-0.082-0.004-0.124-0.002
	c-0.118,0.004-0.235,0.01-0.366,0.019h-17.035C372.281,203.565,372.29,203.469,372.303,203.373z M360.392,241.158
	c0.524-1.016,1.033-2.041,1.528-3.074c0.25-0.523,0.494-1.049,0.737-1.575c0.462-1.001,0.913-2.009,1.347-3.025
	c0.224-0.525,0.44-1.054,0.657-1.583c0.377-0.92,0.742-1.846,1.097-2.777c0.163-0.43,0.332-0.857,0.491-1.289
	c0.435-1.186,0.844-2.383,1.241-3.586c0.148-0.449,0.296-0.897,0.439-1.348c0.392-1.238,0.764-2.485,1.116-3.74
	c0.046-0.163,0.1-0.322,0.145-0.485h0.854v6.354c0,8.979-4.889,16.914-12.344,21.086c0.191-0.33,0.364-0.67,0.552-1.001
	c0.432-0.765,0.857-1.534,1.272-2.309C359.815,242.257,360.107,241.71,360.392,241.158z M119.806,203.069
	c-0.006-0.003-0.013-0.004-0.02-0.007c-2.3-1.047-3.905-3.361-3.905-6.048v-33.1c0.22,0.097,0.443,0.189,0.663,0.285
	c0.345,0.151,0.692,0.299,1.039,0.446c0.746,0.318,1.495,0.629,2.248,0.933c0.329,0.133,0.656,0.267,0.986,0.397
	c1.012,0.4,2.029,0.789,3.053,1.165c0.042,0.015,0.083,0.032,0.125,0.047c4.757,1.739,9.642,3.219,14.629,4.428v15.921
	c0,1.229,0.025,2.451,0.063,3.671c0.01,0.319,0.024,0.637,0.036,0.956c0.039,0.99,0.089,1.976,0.152,2.96
	c0.016,0.255,0.03,0.51,0.049,0.764c0.178,2.518,0.437,5.014,0.772,7.487c0.013,0.096,0.021,0.192,0.035,0.287h-17.204
	C121.594,203.66,120.678,203.461,119.806,203.069z M146.227,273.123c-12.95-3.228-21.995-14.806-21.995-28.153v-26.296h18.581
	c0.044,0.16,0.098,0.316,0.142,0.476c0.36,1.286,0.742,2.562,1.145,3.83c0.141,0.446,0.287,0.89,0.434,1.333
	c0.406,1.229,0.827,2.451,1.273,3.661c0.164,0.445,0.337,0.886,0.506,1.329c0.382,1,0.777,1.995,1.186,2.982
	c0.242,0.586,0.49,1.169,0.741,1.751c0.406,0.936,0.823,1.866,1.252,2.789c0.231,0.498,0.459,0.997,0.698,1.492
	c0.51,1.059,1.04,2.106,1.581,3.146c0.285,0.549,0.573,1.097,0.867,1.641c0.536,0.994,1.085,1.98,1.649,2.956
	c0.331,0.573,0.671,1.141,1.011,1.708c0.422,0.703,0.853,1.401,1.289,2.094c0.518,0.825,1.047,1.642,1.586,2.453
	c0.363,0.546,0.73,1.089,1.102,1.628c0.651,0.946,1.317,1.881,1.995,2.808c0.338,0.461,0.677,0.922,1.021,1.378
	c0.791,1.048,1.603,2.08,2.428,3.101c0.275,0.34,0.546,0.682,0.825,1.019c0.558,0.675,1.123,1.342,1.695,2.004
	c0.136,0.158,0.276,0.311,0.413,0.468c1.059,1.212,2.142,2.403,3.251,3.571c0.186,0.196,0.374,0.389,0.562,0.584
	c1.085,1.128,2.193,2.235,3.323,3.32c0.179,0.172,0.359,0.344,0.539,0.515c1.177,1.116,2.378,2.207,3.602,3.275
	c0.144,0.125,0.286,0.252,0.43,0.376c2.086,1.802,4.235,3.535,6.45,5.192c0.035,0.027,0.072,0.052,0.107,0.079
	c0.95,0.709,1.896,1.422,2.868,2.103L146.227,273.123z M159.9,222.799c-0.027-0.075-0.055-0.149-0.082-0.224
	c-0.268-0.732-0.528-1.468-0.779-2.207c-0.016-0.048-0.032-0.096-0.048-0.144c-0.747-2.211-1.417-4.456-2.014-6.732
	c-0.042-0.16-0.087-0.319-0.128-0.479c-0.14-0.546-0.271-1.096-0.403-1.646c-0.093-0.388-0.186-0.775-0.274-1.165
	c-0.111-0.487-0.216-0.976-0.32-1.466c-0.085-0.402-0.168-0.804-0.248-1.208c-0.084-0.423-0.165-0.846-0.244-1.271
	c-0.092-0.5-0.181-1.001-0.266-1.503c-0.059-0.349-0.118-0.699-0.174-1.049c-0.093-0.583-0.179-1.168-0.262-1.753
	c-0.041-0.286-0.082-0.572-0.121-0.859c-0.086-0.648-0.163-1.297-0.237-1.947c-0.027-0.239-0.057-0.478-0.082-0.718
	c-0.073-0.689-0.136-1.379-0.196-2.069c-0.018-0.212-0.04-0.423-0.057-0.635c-0.056-0.707-0.102-1.415-0.143-2.123
	c-0.012-0.202-0.028-0.403-0.039-0.606c-0.038-0.721-0.064-1.442-0.088-2.163c-0.006-0.192-0.017-0.382-0.022-0.574
	c-0.024-0.908-0.037-1.817-0.037-2.726V174.39c11.164,1.435,22.86,1.598,34.972,0.515c0.395-0.035,0.793-0.079,1.189-0.116
	c0.982-0.094,1.966-0.194,2.953-0.305c0.873-0.096,1.748-0.199,2.625-0.308c0.247-0.031,0.495-0.065,0.743-0.098
	c20.379-2.616,41.818-8.666,63.967-18.171c28.992-12.442,51.842-27.496,63.157-35.582c8.96,17.311,22.543,27.729,35.076,33.981
	c0.019,0.791,0.041,1.586,0.041,2.353v30.876c0,0.909-0.013,1.817-0.037,2.726c-0.005,0.192-0.016,0.382-0.022,0.574
	c-0.023,0.721-0.049,1.443-0.088,2.163c-0.011,0.203-0.027,0.404-0.039,0.606c-0.042,0.708-0.087,1.416-0.143,2.123
	c-0.017,0.212-0.038,0.423-0.057,0.635c-0.059,0.69-0.122,1.38-0.196,2.069c-0.025,0.24-0.055,0.478-0.082,0.718
	c-0.074,0.65-0.151,1.299-0.237,1.947c-0.038,0.287-0.08,0.573-0.121,0.859c-0.083,0.585-0.169,1.17-0.262,1.753
	c-0.056,0.35-0.115,0.7-0.174,1.049c-0.085,0.502-0.173,1.003-0.266,1.503c-0.079,0.425-0.16,0.848-0.244,1.271
	c-0.08,0.403-0.163,0.806-0.248,1.208c-0.104,0.49-0.209,0.978-0.32,1.465c-0.088,0.391-0.182,0.78-0.275,1.169
	c-0.131,0.547-0.261,1.095-0.401,1.639c-0.043,0.168-0.09,0.334-0.134,0.502c-0.593,2.261-1.26,4.492-2.002,6.689
	c-0.02,0.058-0.038,0.116-0.058,0.174c-0.249,0.732-0.507,1.461-0.771,2.185c-0.03,0.083-0.061,0.167-0.091,0.25
	c-3.817,10.366-9.27,19.946-16.039,28.434l-16.86,2.892c-1.574-2.767-3.728-5.191-6.404-7.084
	c-4.803-3.398-10.642-4.723-16.438-3.724l-24.472,4.197c-11.967,2.052-20.033,13.457-17.981,25.424
	c1.281,7.472,6.196,13.485,12.743,16.394c-3.5,0.363-7.051,0.552-10.645,0.552c-14.871,0-29.01-3.191-41.772-8.919
	c-0.283-0.127-0.565-0.257-0.847-0.387C188.736,269.259,169.332,248.421,159.9,222.799z M305.797,269.077
	c-1.081,1.528-2.691,2.543-4.536,2.86l-24.476,4.197c-0.396,0.068-0.799,0.103-1.198,0.103c-3.413,0-6.31-2.449-6.889-5.824
	c-0.653-3.808,1.913-7.436,5.721-8.09l24.474-4.197c0.401-0.068,0.802-0.103,1.2-0.103c1.435,0,2.833,0.442,4.029,1.287
	c1.528,1.08,2.544,2.692,2.86,4.536C307.299,265.691,306.878,267.548,305.797,269.077z M219.28,380.264
	c-5.548,1.889-11.628,0.262-15.49-4.144l-34.82-39.739l25.825-8.052c0.148-0.046,0.31-0.008,0.424,0.099l46.597,44.16
	L219.28,380.264z M256,365.342l-43.966-41.665c4.656-4.999,7.396-11.665,7.396-18.705v-5.875c0.488,0.16,0.983,0.298,1.473,0.452
	c0.247,0.078,0.496,0.152,0.743,0.228c1.486,0.456,2.98,0.881,4.482,1.276c0.27,0.071,0.539,0.144,0.81,0.213
	c0.837,0.214,1.675,0.421,2.516,0.616c0.218,0.051,0.437,0.096,0.656,0.145c1.446,0.326,2.897,0.625,4.355,0.896
	c0.506,0.094,1.013,0.185,1.521,0.273c0.706,0.121,1.412,0.244,2.121,0.352c1.067,0.164,2.14,0.311,3.216,0.446
	c0.564,0.07,1.129,0.132,1.694,0.194c0.91,0.101,1.823,0.19,2.739,0.27c0.385,0.033,0.768,0.073,1.154,0.103
	c1.285,0.099,2.577,0.17,3.872,0.227c0.365,0.016,0.731,0.029,1.096,0.042c1.368,0.047,2.741,0.08,4.121,0.08
	s2.752-0.033,4.121-0.08c0.366-0.013,0.731-0.026,1.096-0.042c1.296-0.057,2.588-0.129,3.872-0.227
	c0.385-0.029,0.769-0.07,1.154-0.103c0.916-0.08,1.829-0.169,2.739-0.27c0.565-0.062,1.13-0.124,1.694-0.194
	c1.076-0.135,2.149-0.282,3.216-0.446c0.709-0.108,1.415-0.231,2.121-0.352c0.508-0.088,1.015-0.179,1.521-0.273
	c1.458-0.271,2.91-0.57,4.355-0.896c0.218-0.049,0.438-0.094,0.656-0.145c0.841-0.195,1.68-0.402,2.516-0.616
	c0.271-0.069,0.54-0.142,0.81-0.213c1.502-0.395,2.995-0.821,4.482-1.276c0.248-0.076,0.496-0.15,0.743-0.228
	c0.49-0.154,0.984-0.291,1.473-0.452v5.875c0,7.041,2.74,13.707,7.396,18.705L256,365.342z M310.447,373.567
	c-5.222,5.958-13.443,8.157-20.94,5.603l-19.324-6.582l46.597-44.16c0.113-0.106,0.275-0.146,0.425-0.098l25.824,8.052
	L310.447,373.567z"/>
<path d="M190.372,468.404c7.274,0,13.192-5.917,13.192-13.192v-25.047c0-7.274-5.918-13.193-13.192-13.193h-56.55
	c-7.274,0-13.192,5.918-13.192,13.193v25.047c0,7.274,5.918,13.192,13.192,13.192H190.372z M135.643,431.986h52.907v21.404h-52.907
	V431.986z"/>
<g>
</g>
<g>
</g>
<g>
</g>
<g>
</g>
<g>
</g>
<g>
</g>
<g>
</g>
<g>
</g>
<g>
</g>
<g>
</g>
<g>
</g>
<g>
</g>
<g>
</g>
<g>
</g>
<g>
</g>
</svg>
