<?xml version="1.0" encoding="iso-8859-1"?>
<!-- Generator: Adobe Illustrator 19.0.0, SVG Export Plug-In . SVG Version: 6.00 Build 0)  -->
<svg version="1.1" id="Capa_1" xmlns="http://www.w3.org/2000/svg" xmlns:xlink="http://www.w3.org/1999/xlink" x="0px" y="0px"
	 viewBox="0 0 512.11 512.11" style="enable-background:new 0 0 512.11 512.11;" xml:space="preserve">
<g>
	<g transform="translate(1)">
		<path style="fill:#BFA885;" d="M493.305,411.307l-132.096,84.651c-7.686,4.866-16.588,7.469-25.685,7.509H150.18
			c-45.056,0-57.259-23.125-57.259-23.125v-2.475h-25.6v-102.4h25.6v0.597c14.933-22.784,44.459-30.635,63.061-33.28h0.085
			c5.451-0.85,10.953-1.335,16.469-1.451h4.352c14.702,0.041,28.924,5.234,40.192,14.677c11.194,9.534,25.403,14.795,40.107,14.848
			h36.864c12.569,0.069,24.134,6.878,30.293,17.835l0.597,1.024c4.528,7.982,4.847,17.679,0.853,25.941
			c-1.104,2.231-2.511,4.299-4.181,6.144h16.128c3.02,0.032,6.022-0.458,8.875-1.451l116.224-40.789l14.165-5.035
			c2.035-0.685,4.168-1.031,6.315-1.024c6.128,0.067,11.847,3.085,15.36,8.107c3.257,4.641,4.521,10.392,3.511,15.97
			C501.182,403.16,497.982,408.102,493.305,411.307z"/>
		<path style="fill:#FFE0B2;" d="M459.172,411.307l-132.096,84.651c-7.686,4.866-16.588,7.469-25.685,7.509H150.18
			c-45.056,0-57.259-23.125-57.259-23.125v-2.475h-25.6v-102.4h25.6v0.597c14.933-22.784,44.459-30.635,63.061-33.28h0.085
			c9.892,2.187,19.112,6.724,26.88,13.227c11.194,9.534,25.403,14.795,40.107,14.848h36.864
			c12.569,0.069,24.134,6.878,30.293,17.835l0.597,1.024c5.885,10.302,4.546,23.21-3.328,32.085h16.128
			c3.02,0.032,6.022-0.458,8.875-1.451l13.312-4.693c-1.104,2.231-2.511,4.299-4.181,6.144h16.128
			c3.02,0.032,6.022-0.458,8.875-1.451l116.224-40.789c0.635,0.625,1.206,1.311,1.707,2.048c3.257,4.641,4.521,10.392,3.511,15.97
			C467.049,403.16,463.848,408.102,459.172,411.307z"/>
		<path style="fill:#2296F3;" d="M502.521,153.6c0.003,38.475-15.279,75.375-42.485,102.581s-64.106,42.489-102.581,42.485
			c-15.033,0.028-29.978-2.304-44.288-6.912l-41.045,32.512v-53.419c-55.36-40.294-75.001-113.814-47.112-176.348
			s95.71-97.048,162.679-82.786S502.531,85.129,502.521,153.6z"/>
		<path style="fill:#4CAF50;" d="M16.121,358.4h68.267c4.713,0,8.533,3.82,8.533,8.533V486.4c0,4.713-3.82,8.533-8.533,8.533H16.121
			c-4.713,0-8.533-3.82-8.533-8.533V366.933C7.588,362.221,11.408,358.4,16.121,358.4z"/>
		<g>
			<circle style="fill:#FFFFFF;" cx="357.454" cy="76.8" r="17.067"/>
			<polygon style="fill:#FFFFFF;" points="340.388,162.133 340.388,213.333 323.321,213.333 323.321,247.467 391.588,247.467 
				391.588,213.333 374.521,213.333 374.521,128 323.321,128 323.321,162.133 			"/>
		</g>
		<path style="fill:#1566C0;" d="M502.521,153.6c0.003,38.475-15.279,75.375-42.485,102.581s-64.106,42.489-102.581,42.485
			c-4.352,0-8.704-0.171-12.971-0.597c74.9-6.525,132.393-69.208,132.438-144.391S419.546,15.744,344.654,9.131
			c4.254-0.416,8.526-0.615,12.8-0.597c38.475-0.003,75.375,15.279,102.581,42.485S502.524,115.125,502.521,153.6z"/>
	</g>
	<g>
		<path d="M17.121,503.467h68.267c5.094-0.019,9.909-2.325,13.117-6.282c15.458,10.561,33.952,15.765,52.649,14.816h185.342
			c10.744-0.038,21.257-3.116,30.325-8.879l132.117-84.671c6.577-4.331,11.112-11.148,12.567-18.887
			c1.538-7.991-0.24-16.263-4.925-22.917c-7.078-9.924-19.821-14.039-31.367-10.129l-130.5,45.787
			c-1.909,0.668-3.919,1.001-5.942,0.983h-2.033c2.609-9.284,1.412-19.225-3.325-27.625l-0.667-1.208
			c-7.702-13.573-22.061-22.006-37.667-22.121h-36.866c-12.711-0.089-24.988-4.635-34.692-12.846
			c-12.794-10.723-28.94-16.627-45.633-16.688h-4.325c-2.148,0-45.896,0.399-74.129,24.474c-3.176-4.632-8.43-7.402-14.046-7.408
			H17.121c-9.421,0.011-17.056,7.645-17.067,17.067V486.4C0.065,495.821,7.7,503.456,17.121,503.467z M173.562,349.867h4.325
			c12.695,0.058,24.968,4.559,34.692,12.721c12.774,10.774,28.923,16.723,45.633,16.813h36.867
			c9.449,0.018,18.153,5.133,22.767,13.379l0.667,1.208c3.372,6.034,3.208,13.422-0.429,19.3h-42.004
			c-14.349,0.041-28.337,4.505-40.058,12.783l-5.117,3.592c-2.495,1.751-3.866,4.699-3.598,7.735c0.269,3.036,2.136,5.698,4.9,6.983
			c2.764,1.285,6.003,0.999,8.498-0.752l5.1-3.575c8.855-6.268,19.426-9.655,30.275-9.7h62.692c3.985,0.019,7.944-0.652,11.7-1.983
			l130.309-45.72c4.403-1.496,9.264,0.106,11.917,3.925c1.981,2.842,2.721,6.368,2.05,9.767c-0.55,3.169-2.375,5.973-5.05,7.758
			l-132.025,84.612c-6.331,4.029-13.671,6.185-21.175,6.221H151.154c-32.625,0-45.325-12.829-48.7-17.188v-99.004
			C123.296,350.321,173.062,349.867,173.562,349.867z M17.121,366.933h68.267V486.4H17.121V366.933z"/>
		<path d="M36.662,446.208c-2.462,2.441-3.201,6.129-1.872,9.331c1.329,3.202,4.464,5.281,7.931,5.261
			c2.259-0.035,4.421-0.918,6.059-2.475c0.753-0.83,1.359-1.783,1.792-2.817c0.437-1.026,0.669-2.127,0.683-3.242
			c-0.033-2.259-0.917-4.422-2.475-6.059C45.358,443.049,40.084,443.049,36.662,446.208z"/>
		<path d="M358.454,102.4c14.138,0,25.6-11.462,25.6-25.6s-11.462-25.6-25.6-25.6c-14.138,0-25.6,11.462-25.6,25.6
			C332.87,90.932,344.322,102.385,358.454,102.4z M358.454,68.267c4.713,0,8.533,3.82,8.533,8.533c0,4.713-3.82,8.533-8.533,8.533
			s-8.533-3.821-8.533-8.533C349.926,72.089,353.743,68.271,358.454,68.267z"/>
		<path d="M392.588,204.8h-8.533V128c0.001-2.263-0.898-4.434-2.499-6.035s-3.771-2.499-6.035-2.499h-51.2
			c-2.263-0.001-4.434,0.898-6.035,2.499c-1.6,1.6-2.499,3.771-2.499,6.035v34.133c-0.001,2.263,0.898,4.434,2.499,6.035
			c1.6,1.6,3.771,2.499,6.035,2.499h8.533V204.8h-8.533c-2.263-0.001-4.434,0.898-6.035,2.499c-1.6,1.6-2.499,3.771-2.499,6.035
			v34.133c-0.001,2.263,0.898,4.434,2.499,6.035c1.6,1.6,3.771,2.499,6.035,2.499h68.267c2.263,0.001,4.434-0.898,6.035-2.499
			c1.6-1.6,2.499-3.771,2.499-6.035v-34.133c0.001-2.263-0.898-4.434-2.499-6.035C397.022,205.698,394.851,204.799,392.588,204.8z
			 M384.054,238.933h-51.2v-17.067h8.533c2.263,0.001,4.434-0.898,6.035-2.499c1.6-1.6,2.499-3.771,2.499-6.035v-51.2
			c0.001-2.263-0.898-4.434-2.499-6.035c-1.6-1.6-3.771-2.499-6.035-2.499h-8.533v-17.067h34.133v76.8
			c-0.001,2.263,0.898,4.434,2.499,6.035c1.6,1.6,3.771,2.499,6.035,2.499h8.533V238.933z"/>
		<path d="M358.454,0C292.74-0.016,234.299,41.783,213.08,103.977s-0.513,130.996,51.507,171.148v49.142
			c0,3.273,1.872,6.258,4.819,7.682c2.947,1.425,6.449,1.038,9.014-0.995l37.533-29.729c57.696,16.607,119.779-1.921,158.935-47.434
			s48.208-109.666,23.172-164.236S418.493,0.004,358.454,0z M358.454,290.133c-14.143,0.023-28.203-2.17-41.667-6.5
			c-2.716-0.868-5.685-0.331-7.925,1.434l-27.208,21.554V270.85c0.001-2.735-1.31-5.304-3.525-6.908
			c-54.232-39.535-71.669-112.634-41.121-172.392S337.019,3.115,400.826,23.921s103.015,84.917,92.465,151.195
			S425.567,290.166,358.454,290.133z"/>
	</g>
</g>
<g>
</g>
<g>
</g>
<g>
</g>
<g>
</g>
<g>
</g>
<g>
</g>
<g>
</g>
<g>
</g>
<g>
</g>
<g>
</g>
<g>
</g>
<g>
</g>
<g>
</g>
<g>
</g>
<g>
</g>
</svg>
